<svg width="40" height="40" viewBox="0 0 40 40" fill="none" xmlns="http://www.w3.org/2000/svg">
<path d="M20 40C31.0457 40 40 31.0457 40 20C40 8.9543 31.0457 0 20 0C8.9543 0 0 8.9543 0 20C0 31.0457 8.9543 40 20 40Z" fill="#2B63F4"/>
<path d="M20.0002 8.11469C15.1313 8.11469 10.5084 7.68026 8.74608 12.2131C8.01657 14.0819 8.12312 16.5163 8.12312 19.9999C8.12312 23.0573 8.02477 25.9262 8.74608 27.7786C10.5084 32.3114 15.1723 31.877 20.0002 31.877C24.6641 31.877 29.4674 32.3606 31.2543 27.7786C31.9838 25.8852 31.8772 23.4917 31.8772 19.9999C31.8772 15.3606 32.1313 12.3606 29.8854 10.1147C27.5985 7.82781 24.5166 8.11469 20.0002 8.11469ZM18.9346 10.254C29.0903 10.2376 30.3854 9.1065 29.6723 24.795C29.4182 30.3442 25.1969 29.7294 20.0002 29.7294C10.533 29.7294 10.2625 29.459 10.2625 19.9917C10.2625 10.4098 11.0084 10.2622 18.9346 10.254ZM26.3362 12.2294C25.5494 12.2294 24.91 12.8688 24.91 13.6557C24.91 14.4426 25.5494 15.0819 26.3362 15.0819C27.1231 15.0819 27.7625 14.4426 27.7625 13.6557C27.7625 12.8688 27.1231 12.2294 26.3362 12.2294ZM20.0002 13.8934C16.6313 13.8934 13.9018 16.6229 13.9018 19.9917C13.9018 23.3606 16.6313 26.0901 20.0002 26.0901C23.369 26.0901 26.0985 23.3606 26.0985 19.9917C26.0985 16.6229 23.369 13.8934 20.0002 13.8934ZM20.0002 16.0327C25.2379 16.0327 25.2461 23.9508 20.0002 23.9508C14.7625 23.959 14.7543 16.0327 20.0002 16.0327Z" fill="white"/>
</svg>
