<svg width="231" height="100" viewBox="0 0 231 100" fill="none" xmlns="http://www.w3.org/2000/svg">
<path d="M112.434 39.1156L112.402 33.809L139.216 33.5598L143.633 29.6281L147.596 34.203L142.868 38.778L112.434 39.1156Z" fill="#2B63F4"/>
<path d="M0.635742 40.0136L7.50079 32.5442L40.024 32.2547L34.0759 24.5601L7.70012 24.745L0.739397 17.565L40.7496 17.3559L50.9316 32.1823L43.2453 39.7162L0.635742 40.0136Z" fill="#2B63F4"/>
<path d="M162.156 10.6055L164.484 7.07581L188.069 6.90696L193.539 0.225441L160.76 0.450572L153.664 10.6618L162.156 10.6055Z" fill="#2B63F4"/>
<path d="M12.1021 11.4684L15.124 8.12362L44.8645 7.91457L51.7934 1.21697L10.4516 1.50642L1.44971 11.7337L12.1021 11.4684Z" fill="#2B63F4"/>
<path d="M56.861 9.50472L56.8052 1.191L97.8279 0.909592L105.873 9.16703L56.861 9.50472Z" fill="#2B63F4"/>
<path d="M57.2242 39.5978L66.3537 39.5335L66.2501 23.9995L92.5621 23.8146L106.029 9.20529L96.2059 9.26961L88.5196 17.0607L57.0728 17.2858L57.2242 39.5978Z" fill="#2B63F4"/>
<path d="M87.6846 39.399L98.5283 39.3186L124.761 9.08687L134.464 9.01451L160.537 38.8924L185.39 38.7156L190.23 31.9054L163.981 32.0903L138.65 0.676666L121.85 0.789231L87.6846 39.399Z" fill="#2B63F4"/>
<path d="M193.163 38.8278L226.26 38.6027L229.888 31.7362L197.995 31.9533L193.163 38.8278Z" fill="#2B63F4"/>
<path d="M193.247 22.7462L226.28 22.5211L229.908 15.8396L198.015 16.0647L193.247 22.7462Z" fill="#2B63F4"/>
<path d="M193.594 6.90665L226.628 6.67348L230.264 0L198.362 0.217088L193.594 6.90665Z" fill="#2B63F4"/>
<path d="M24.3424 79.436L32.252 68.1876L64.9666 67.9625L69.8702 61.2166L28.0182 61.5704L16.9033 77.442L24.9644 78.5355L24.3424 79.436Z" fill="#2B63F4"/>
<path d="M20.2218 72.8156L1.06982 100L44.6281 99.7588L48.7663 93.0853L14.465 93.3828L29.1599 72.7593" fill="#2B63F4"/>
<path d="M145.127 71.7467L145.095 67.6542L175.283 67.5094L180.051 60.7636L138.015 61.053L138.087 71.7949" fill="#2B63F4"/>
<path d="M143.82 71.5399L138.047 71.5801L138.549 99.07L180.274 98.8449L175.856 92.6779L145.231 92.8227L145.087 71.5319" fill="#2B63F4"/>
<path d="M193.219 73.1651L193.179 67.0947L230.271 66.8374L230.223 60.188L185.142 60.4936L185.23 73.2214L193.219 73.1651Z" fill="#2B63F4"/>
<path d="M185.185 71.6658L185.368 98.7136L228.488 98.4161L225.53 92.2974L193.318 92.4582L193.174 71.2879" fill="#2B63F4"/>
<path d="M111.315 92.5325L90.178 61.151L73.5616 61.2716L49.4741 99.801L58.8587 99.7366L77.3011 69.5532L85.9202 69.4969L105.088 99.415L115.733 99.3427L111.315 92.5325Z" fill="#2B63F4"/>
<path d="M105.912 61.0153L94.9404 61.0877L100.769 69.8758L111.932 69.7954L105.912 61.0153Z" fill="#2B63F4"/>
<path d="M131.505 99.0936L117.098 77.8349L105.744 77.9153L119.649 99.174L131.505 99.0936Z" fill="#2B63F4"/>
<path d="M180.293 99.0102L180.142 77.1405L163.788 77.3817L158.885 84.0713L174.353 83.8381L174.417 92.8513" fill="#2B63F4"/>
<path d="M230.101 60.1695L230.364 98.4013L222.12 98.4576L221.865 60.2258" fill="#2B63F4"/>
<path d="M122.833 60.8791L102.039 61.0238L107.868 69.6833L107.931 69.812L121.94 69.7155C122.762 69.7074 123.655 69.8924 124.42 70.2059H124.484C128.367 71.9668 127.131 77.6031 122.826 77.6996H122.762L111.663 77.78L114.501 84.4132C114.501 84.4132 141.475 88.2565 133.47 67.2069C131.851 63.1867 127.338 60.847 122.833 60.8791Z" fill="#2B63F4"/>
</svg>
