<svg width="41" height="40" viewBox="0 0 41 40" fill="none" xmlns="http://www.w3.org/2000/svg">
<path d="M20.333 0C9.28493 0 0.333008 8.96013 0.333008 20C0.333008 31.0399 9.29315 40 20.333 40C31.3811 40 40.333 31.0399 40.333 20C40.333 8.96013 31.3811 0 20.333 0Z" fill="#2B63F4"/>
<path fill-rule="evenodd" clip-rule="evenodd" d="M15.0666 26.8001C15.0629 26.794 15.0593 26.7879 15.0556 26.7817C14.0774 26.1899 13.4116 25.1212 13.3951 23.8964C13.3622 21.9729 14.9159 20.411 16.8394 20.411C17.2176 20.411 17.5792 20.4768 17.9245 20.5836V17.8216C15.853 17.8463 13.913 18.7094 12.5238 20.2713C11.4634 21.4632 10.8222 22.9757 10.7235 24.5705C10.6527 25.7589 10.8674 26.9148 11.3413 27.9614C10.864 26.9144 10.6439 25.7547 10.715 24.5623C10.8137 22.9675 11.4467 21.455 12.5153 20.2631C13.9045 18.7094 15.8363 17.8381 17.916 17.8134V16.7201C17.5543 16.6626 17.1926 16.6379 16.8227 16.6379C14.7183 16.6379 12.7537 17.5093 11.348 19.0875C10.2876 20.2795 9.6464 21.792 9.54775 23.3868C9.41623 25.4747 10.1807 27.464 11.6686 28.9273C11.8534 29.112 12.046 29.2732 12.2388 29.4339C12.2461 29.4431 12.2534 29.4524 12.2607 29.4616C12.2772 29.4739 12.2936 29.4883 12.31 29.5027C12.3265 29.5171 12.3429 29.5314 12.3594 29.5438C13.6253 30.5138 15.1789 31.0481 16.8148 31.0481C17.1847 31.0481 17.5546 31.0234 17.9081 30.9659C19.437 30.7357 20.8509 30.037 21.9607 28.9355C23.3335 27.5791 24.0897 25.7871 24.0979 23.8718L24.0815 15.3802C24.7309 15.8816 25.4461 16.3009 26.2188 16.6215C27.4107 17.1229 28.6767 17.3777 29.9755 17.3777V14.6486C29.9754 14.6486 29.9753 14.6485 29.9752 14.6485V14.6239V13.5964H29.967C28.6438 13.5964 27.4191 13.1608 26.4328 12.4212C26.4327 12.4211 26.4326 12.421 26.4325 12.4209L26.4243 12.4127C25.3146 11.5742 24.509 10.3494 24.213 8.94368H24.2016C24.1944 8.92175 24.1879 8.89982 24.1879 8.87789C24.1139 8.52442 24.081 8.1545 24.0728 7.77637H20.275V18.1586L20.2668 23.8471C20.2668 25.3678 19.2803 26.6584 17.9075 27.1105C17.513 27.242 17.0773 27.3078 16.6334 27.2831C16.0594 27.2503 15.5262 27.0785 15.0666 26.8001ZM21.451 8.95187H21.4423V19.3259L21.4341 25.0143C21.4341 26.5351 20.4476 27.8257 19.0748 28.2778C18.7324 28.3919 18.3591 28.4566 17.9762 28.4555C18.3621 28.4576 18.7385 28.3928 19.0836 28.2778C20.4564 27.8257 21.4428 26.5351 21.4428 25.0144L21.451 19.3259V8.95187Z" fill="white"/>
</svg>
